<svg width="726" height="483" viewBox="0 0 726 483" fill="none" xmlns="http://www.w3.org/2000/svg">
<g clip-path="url(#clip0_1_2)">
<path fill-rule="evenodd" clip-rule="evenodd" d="M406.847 449.955C371.817 449.955 358.985 449.497 324.254 445.027C309.986 443.191 357.292 421.597 360.212 420.436C401.271 404.112 435.916 397.974 482.283 397.974C493.651 397.974 509.163 398.699 518.671 400.89C532.86 404.158 550.423 411.936 531.843 423.445C516.684 431.554 499.097 437.133 482.036 441.467C468.134 444.998 423.604 449.955 406.847 449.955V449.955ZM271.823 352.966C273.193 347.085 288.341 323.607 292.251 318.877C295.936 314.419 304.16 303.604 309.224 302.252C307.903 304.748 307.376 306.954 305.788 309.593C297.438 323.473 294.083 329.656 283.081 342.037C279.658 345.889 276.48 350.501 271.823 352.966V352.966ZM525.39 257.244C525.39 260.414 518.563 287.068 517.301 292.895C515.352 301.902 512.132 322.819 515.003 332.925C517.089 340.27 521.244 340.389 528.73 341.388C541.166 343.048 545.927 332.45 553.025 321.646C554.581 319.278 555.813 317.285 557.086 314.931L576.526 278.586C586.063 259.512 589.466 254.313 601.206 236.704C608.558 225.678 616.344 215.42 625.708 206.055C640.117 191.644 621.455 227.667 618.758 234.605C611.153 253.569 591.181 310.758 605.699 330.343C609.636 335.656 613.357 337.555 621.36 338.78C641.594 341.875 670.388 313.167 679.171 301.991C704.433 269.849 690.209 248.47 690.209 225.548C697.085 222.249 702.264 219.529 707.8 213.979C712.868 208.898 716.597 203.503 720.281 197.299C724.053 190.945 728.179 177.552 723.619 168.683C721.971 165.478 719.54 163.152 716.578 161.138C716.234 160.904 714.306 159.9 713.995 159.832C706.65 158.215 710.984 167.639 709.07 171.508C706.915 175.866 699.298 183.541 695.764 187.362C690.938 192.579 685.49 196.939 680.547 201.94C676.183 206.355 666.896 210.877 668.878 217.658C674.79 237.885 674.637 264.225 667.581 282.16C662.358 295.433 654.85 309.451 639.495 313.029C639.495 299.105 642.075 283.682 645.908 270.63C651.006 253.269 676.077 188.924 671.324 174.068C669.578 168.611 662.978 165.069 656.872 163.744C651.276 162.529 645.721 168.914 642.189 172.457C638.443 176.216 632.999 180.988 629.892 184.883L595.952 224.477C589.896 231.894 568.85 262.486 563.425 266.119C564.125 257.708 578.274 206.987 581.541 195.486C584.864 183.789 588.365 171.883 570.256 168.003C560.735 165.963 559.945 168.254 556.177 174.559C552.022 181.512 548.419 188.89 545.312 196.658C542.345 204.079 535.544 225.577 533.613 229.334C531.575 233.3 526.453 237.713 523.335 241.243L486.355 282.234C473.595 298.761 474.119 294.072 478.885 277.934C483.232 263.217 488.355 249.403 493.3 234.662C494.952 229.738 497.305 224.882 494.783 220.025C491.251 213.22 476.737 203.625 470.48 211.842L446.651 245.7C437.914 258.752 380.088 353.267 400.909 283.002C410.415 250.921 429.754 217.075 455.858 195.953C464.383 189.055 473.377 182.777 485.445 183.714C496.914 184.604 488.93 197.758 497.306 205.455C506.679 214.067 516.052 196.499 504.221 178.887C501.517 174.861 499.819 172.988 496.487 169.506C463.607 136.573 424.105 176.629 405.451 204.5C403.132 207.964 401.273 211.145 399.207 214.738C391.078 228.88 385.053 229.371 370.714 236.959C370.714 211.532 364.11 178.728 343.842 174.448C326.339 170.752 311.572 186.656 300.829 198.136C293.668 205.789 287.129 214.909 281.329 223.644C275.308 232.711 269.43 241.91 264.216 251.539L256.097 266.241C222.411 321.56 216.58 353.465 242.796 258.646C247.305 242.336 252.918 226.175 257.373 209.83C258.76 204.741 260.71 198.289 261.065 191.939C262.087 173.623 246.032 167.706 240.902 171.156C228.416 179.55 187.208 344.634 182.22 359.719C174.454 383.206 159.054 348.664 154.125 338.808C151.711 333.981 149.133 328.711 146.949 323.797C142.372 313.505 137.902 303.66 133.21 293.161C126.277 277.646 120.563 261.456 115.155 245.289C112.273 236.675 113.23 235.41 121.771 228.271L193.366 162.305C194.756 160.912 195.071 160.842 196.48 159.714L234.575 126.176C242.482 118.774 262.992 102.569 271.278 96.3177C308.014 68.5994 327.535 59.5537 288.679 109.282C244.53 165.791 343.754 122.64 362.383 115.156C390.251 103.961 418.503 93.7772 447.993 87.9282C466.659 84.2259 486.135 82.4435 505.58 84.9762C508.756 85.3901 512.952 86.7198 516.515 86.7198C515.657 76.4012 503.529 62.8297 494.262 59.5274C473.385 52.0881 428.215 61.3095 407.705 67.2926C384.623 74.026 315.55 110.036 326.556 88.2035C337.973 65.5513 345.864 24.4642 305.962 37.8157C291.847 42.5385 280.989 51.2734 269.037 59.2113C257.246 67.0423 245.846 75.0374 235.196 84.3251C232.497 86.6793 230.036 88.621 227.252 90.961C224.409 93.3501 222.111 95.2306 219.348 97.6375L187.975 124.585C186.452 126.064 185.969 126.679 184.342 127.924C182.685 129.193 182.007 130.111 180.27 131.46L172.131 138.535C170.481 140.142 170.144 140.38 168.4 141.777C166.815 143.045 166.157 144.065 164.423 145.407L141.069 165.794C139.419 167.401 139.082 167.639 137.338 169.035C135.754 170.303 135.095 171.322 133.361 172.665C70.5339 221.335 147.263 108.865 159.416 87.1507C168.862 70.2721 191.007 32.1143 150.483 41.4508C137.506 44.4408 125.19 50.368 113.343 56.2916L68.5349 81.2147C46.7631 94.2022 12.7065 115.845 2.17547 137.202C-4.27163 150.276 4.73347 164.89 14.5272 172.223C17.0801 174.134 23.1094 178.031 27.1298 176.102C30.2689 172.963 22.8636 165.747 31.9348 152.381C39.344 141.464 52.3434 131.528 62.4322 123.29C73.6934 114.095 86.163 106.714 98.9586 99.5939C100.348 98.8209 119.535 85.7339 117.605 95.2737C116.164 102.4 111.077 109.182 107.605 115.213C96.9757 133.674 86.9555 156.88 79.0143 176.639C58.2981 228.184 48.183 252.724 31.8412 310.133C22.6754 342.333 12.9702 373.754 9.99627 408.099C8.17307 429.154 8.52657 443.999 17.0047 458.812C19.6752 463.479 27.1122 471.661 32.9853 472.66C43.7725 474.496 43.8372 461.856 43.0367 453.7C42.5908 449.157 41.6792 444.976 41.6902 440.466C41.6972 437.464 41.703 435.942 41.3183 433.18C40.708 428.798 43.5676 401.953 44.1498 398.512C47.0364 381.455 50.557 365.755 54.7681 348.908L64.1579 313.289C67.1184 301.519 70.9395 290.287 74.7547 278.878C87.04 242.142 83.7839 263.017 97.476 294.03C103.967 308.733 111.31 322.833 118.414 337.118C129.084 358.575 143.145 381.394 158.844 399.383C166.864 408.573 169.962 413.368 166.958 426.866C164.458 438.105 154.155 469.226 166.827 478.88C176.18 486.005 186.486 483.646 190.967 472.428C213.294 416.528 188.815 434.13 235.318 453.496C254.885 461.644 275.61 467.408 296.161 472.526C346.187 484.985 391.088 484.868 441.765 479.168C468.553 476.152 521.019 462.573 541.791 446.07C589.842 407.894 553.078 369.38 497.454 368.828C454.613 368.403 411.999 371.853 371.266 386.482C350.735 393.857 319.299 410.896 310.75 432.464C302.836 455.28 247.597 428.183 231.242 420.171C197.346 403.567 221.008 380.215 234.965 345.268C249.955 307.73 263.852 280.698 283.897 247.131C290.841 235.502 299.532 224.186 308.741 214.288C315.576 206.942 325.824 193.852 336.482 193.852C337.738 195.727 338.986 196.522 339.492 199.083C340.973 206.565 339.285 215.064 337.909 221.903C335.942 231.678 333.72 240.119 331.004 249.23C324.763 270.174 320.943 272.686 307.475 285.29C298.795 293.412 295 296.378 285.281 306.202L277.331 315.368C266.628 328.106 245.386 356.42 251.768 373.02C255.271 382.132 267.501 381.267 276.828 378.256C287.184 374.913 302.008 367.427 309.712 359.793C315.747 353.811 320.619 348.425 326.072 341.922C341.377 322.318 353.523 298.593 360.8 273.954C363.291 265.518 364.37 256.025 372.085 251.008C374.148 249.668 381.69 245.744 384.026 245.199C377.976 256.634 374.718 274.375 372.786 289.744C371.125 302.962 372.126 314.016 377.892 324.868C382.504 333.547 394.468 342.81 404.533 337.34C415.971 331.123 428.461 310.367 436.999 299.44C454.703 276.779 430.366 321.23 448.925 332.441C462.726 340.777 472.387 323.921 479.114 314.93C480.965 312.457 482.707 310.379 484.638 307.776C490.08 300.438 520.905 260.247 525.39 257.244V257.244Z" fill="white"/>
<path fill-rule="evenodd" clip-rule="evenodd" d="M676.263 3.04248C676.263 10.8491 680.066 15.8905 680.066 22.694C680.066 50.1452 679.055 57.5295 667.178 81.4383C660.457 94.9675 652.144 106.458 643.023 118.139L629.532 135.077C628.695 135.931 627.747 137.038 626.775 137.514C621.281 140.208 624.13 131.064 625.383 124.589C630.315 99.1047 659.604 29.6669 621.746 29.6669C614.548 29.6669 612.101 44.7767 610.715 50.3323C605.109 72.8077 596.389 108.175 596.389 131.094C596.389 144.194 596.248 154.416 605.508 158.108C628.53 167.288 644.504 143.181 656.771 129.986C665.613 120.475 675.04 106.563 681.703 95.3295C694.98 72.9449 707.938 37.1512 696.346 12.1193C695.54 10.378 694.963 9.08258 693.841 7.65138L691.74 5.31478C682.748 -3.67792 676.263 1.01908 676.263 3.04248V3.04248Z" fill="white"/>
</g>
<defs>
<clipPath id="clip0_1_2">
<rect width="725.625" height="482.928" fill="white"/>
</clipPath>
</defs>
</svg>
