<?xml version="1.0" encoding="UTF-8" standalone="no"?>
<svg
   version="1.1"
   width="725.62488"
   height="482.92834"
   id="svg6"
   viewBox="0 0 725.6249 482.92836"
   sodipodi:docname="4a622a8d14cef84efa3693e0970bab32.cdr"
   xmlns:inkscape="http://www.inkscape.org/namespaces/inkscape"
   xmlns:sodipodi="http://sodipodi.sourceforge.net/DTD/sodipodi-0.dtd"
   xmlns="http://www.w3.org/2000/svg"
   xmlns:svg="http://www.w3.org/2000/svg">
  <defs
     id="defs10" />
  <sodipodi:namedview
     id="namedview8"
     pagecolor="#ffffff"
     bordercolor="#666666"
     borderopacity="1.0"
     inkscape:pageshadow="2"
     inkscape:pageopacity="0.0"
     inkscape:pagecheckerboard="0" />
  <path
     d="m 406.84727,449.95528 c -35.0303,0 -47.8624,-0.4587 -82.5931,-4.9278 -14.2685,-1.836 33.0375,-23.43 35.9583,-24.5911 41.0588,-16.3241 75.7035,-22.4626 122.0709,-22.4626 11.3675,0 26.8796,0.7254 36.3875,2.9158 14.1889,3.2686 31.7518,11.0466 13.1724,22.555 -15.1597,8.1093 -32.7462,13.6882 -49.8073,18.0221 -13.9017,3.5314 -58.4323,8.4886 -75.1887,8.4886 z m -135.0247,-96.9897 z m 0,0 c 1.37,-5.8804 16.5189,-29.3587 20.4285,-34.0886 3.685,-4.4583 11.9092,-15.2728 16.9727,-16.6249 -1.3207,2.4959 -1.8479,4.7016 -3.4359,7.3409 -8.35,13.8796 -11.7051,20.0628 -22.7072,32.4436 -3.4231,3.8523 -6.601,8.4646 -11.2581,10.929 z m 253.5673,-95.7217 z m 106.4985,-56.4188 z m -106.4985,56.4188 c 0,3.17 -6.8272,29.8239 -8.0887,35.6516 -1.9493,9.0063 -5.1695,29.9234 -2.2986,40.0295 2.0863,7.3448 6.2413,7.4636 13.7279,8.4631 12.4356,1.6602 17.1961,-8.9377 24.2946,-19.7419 1.556,-2.3681 2.7876,-4.3614 4.061,-6.7156 l 19.44,-36.3447 c 9.5371,-19.074 12.9398,-24.2733 24.6801,-41.8816 7.3516,-11.0262 15.1378,-21.2845 24.5015,-30.6493 14.4091,-14.411 -4.2528,21.6125 -6.9494,28.55 -7.6051,18.9641 -27.5774,76.1533 -13.0595,95.7385 3.9376,5.3124 7.6587,7.2119 15.6611,8.4361 20.2343,3.0958 49.0278,-25.6127 57.8112,-36.7886 25.2618,-32.142 11.0379,-53.5206 11.0379,-76.443 6.8757,-3.2992 12.0551,-6.0185 17.5915,-11.5687 5.068,-5.0814 8.7967,-10.4758 12.4804,-16.6799 3.772,-6.3539 7.8978,-19.7476 3.3378,-28.6164 -1.6481,-3.2051 -4.0791,-5.5309 -7.0407,-7.5447 -0.3442,-0.2341 -2.272,-1.2384 -2.5833,-1.3067 -7.3442,-1.6163 -3.0109,7.8072 -4.9246,11.6764 -2.1552,4.358 -9.7719,12.0326 -13.3064,15.8542 -4.8254,5.2172 -10.2733,9.5766 -15.2164,14.5778 -4.3639,4.4152 -13.6513,8.937 -11.6693,15.7183 5.9116,20.2269 5.7591,46.567 -1.2972,64.5013 -5.2228,13.2735 -12.7312,27.2919 -28.0854,30.8693 0,-13.9241 2.5801,-29.3468 6.4129,-42.3992 5.0978,-17.3608 30.1691,-81.7059 25.4157,-96.5617 -1.7464,-5.4572 -8.3455,-8.9988 -14.4522,-10.3243 -5.5953,-1.2144 -11.1509,5.1704 -14.6823,8.7134 -3.7468,3.759 -9.1905,8.5311 -12.2973,12.4257 l -33.94,39.5943 c -6.0563,7.4166 -27.1021,38.0089 -32.527,41.6418 0.6998,-8.4113 14.8487,-59.1316 18.1162,-70.6326 3.323,-11.6974 6.8236,-23.6029 -11.2853,-27.4833 -9.5207,-2.0404 -10.311,0.2509 -14.0791,6.5565 -4.1548,6.9526 -7.7584,14.3303 -10.8646,22.0989 -2.9671,7.4211 -9.7682,28.9188 -11.6989,32.6756 -2.0387,3.9665 -7.16,8.3786 -10.2787,11.9086 l -36.9802,40.9915 c -12.7591,16.5269 -12.2355,11.8384 -7.4693,-4.2996 4.3469,-14.7177 9.4694,-28.5315 14.4147,-43.272 1.6518,-4.924 4.0048,-9.7801 1.4834,-14.6375 -3.5323,-6.8051 -18.0462,-16.4001 -24.3037,-8.1828 l -23.8286,33.8582 c -8.7367,13.0512 -66.5629,107.5665 -45.7421,37.3014 9.5063,-32.0806 28.8448,-65.9271 54.949,-87.0489 8.5252,-6.8978 17.5187,-13.1757 29.5869,-12.2391 11.469,0.89 3.4849,14.0445 11.8613,21.7408 9.3725,8.612 18.7461,-8.9552 6.9151,-26.5674 -2.7045,-4.0258 -4.4025,-5.8989 -7.734,-9.3815 -32.8802,-32.9327 -72.3824,7.1229 -91.0366,34.9942 -2.3188,3.4642 -4.1775,6.6447 -6.2434,10.2385 -8.1297,14.142 -14.1542,14.6327 -28.4935,22.2202 0,-25.4262 -6.6036,-58.2304 -26.8722,-62.5105 -17.5025,-3.6958 -32.2693,12.2077 -43.0123,23.688 -7.1612,7.6525 -13.6999,16.7726 -19.5004,25.5076 -6.0211,9.0669 -11.8987,18.2659 -17.1133,27.8949 l -8.1185,14.7027 c -33.6858,55.3187 -39.5169,87.2241 -13.3007,-7.5954 4.5091,-16.3094 10.122,-32.4706 14.5766,-48.8154 1.387,-5.0891 3.3372,-11.541 3.6916,-17.8912 1.0221,-18.3158 -15.0322,-24.2331 -20.1626,-20.7836 -12.4855,8.3942 -53.6941,173.4783 -58.682,188.5629 -7.7663,23.4879 -23.1664,-11.0543 -28.095,-20.9106 -2.4137,-4.8266 -4.9915,-10.097 -7.1762,-15.0109 -4.5765,-10.2923 -9.047,-20.1373 -13.7386,-30.6357 -6.933,-15.5151 -12.6468,-31.7049 -18.0553,-47.8723 -2.8814,-8.614 -1.9253,-9.8791 6.6158,-17.0184 l 71.5949,-65.9659 c 1.3909,-1.3924 1.7053,-1.4624 3.1147,-2.5903 l 38.0945,-33.5384 c 7.9073,-7.4018 28.4173,-23.6069 36.703,-29.858397 36.7359,-27.7183 56.2575,-36.764 17.4016,12.964197 -44.1493,56.509 55.0743,13.3583 73.7033,5.874 27.868,-11.1949 56.1201,-21.378697 85.61,-27.227697 18.6667,-3.7023 38.1425,-5.4847 57.5876,-2.952 3.1759,0.4139 7.3717,1.7436 10.9349,1.7436 -0.8586,-10.3186 -12.9864,-23.8901 -22.2534,-27.1924 -20.8769,-7.4393 -66.0467,1.7821 -86.5565,7.7652 -23.0825,6.7334 -92.1557,42.743597 -81.1496,20.9109 11.4173,-22.6522 19.3079,-63.7393 -20.594,-50.3878 -14.1149,4.7228 -24.9727,13.4577 -36.9247,21.3956 -11.791,7.831 -23.1914,15.8261 -33.8406,25.1138 -2.6991,2.3542 -5.1601,4.2959 -7.9443,6.6359 -2.8429,2.3891 -5.1412,4.2696 -7.9036,6.6765 l -31.3733,26.947497 c -1.5228,1.4789 -2.0066,2.094 -3.6331,3.3395 -1.6566,1.2685 -2.3352,2.1861 -4.072,3.5354 l -8.1386,7.0756 c -1.6503,1.6066 -1.9876,1.8447 -3.7318,3.2411 -1.5845,1.2682 -2.2422,2.2881 -3.977,3.63 l -23.3532,20.3874 c -1.6503,1.6066 -1.9877,1.8448 -3.7318,3.2411 -1.584,1.2679 -2.2431,2.2867 -3.977,3.6301 -62.826803,48.6697 13.9019,-63.8 26.0552,-85.514497 9.4464,-16.8786 31.5907,-55.0364 -8.9326,-45.6999 -12.9775,2.99 -25.2935,8.9172 -37.1406,14.8408 l -44.807803,24.9231 c -21.7718,12.9875 -55.8284,34.629997 -66.3594004,55.987097 -6.4471,13.0742 2.558,27.6885 12.3517004,35.0211 2.5529,1.9114 8.5822,5.8085 12.6026,3.8793 3.1391,-3.1388 -4.2662,-10.3556 4.805,-23.7215 7.4092,-10.9165 20.4086,-20.8531 30.4974,-29.0908 11.2612,-9.1948 23.7308,-16.5762 36.5264,-23.695997 1.389503,-0.773 20.576103,-13.86 18.646503,-4.3202 -1.4411,7.126297 -6.5276,13.907897 -10.0003,19.939697 -10.629103,18.4609 -20.649303,41.6662 -28.590503,61.4256 -20.7162,51.5452 -30.8313,76.085 -47.1731,133.494 -9.1658,32.2002 -18.871,63.6213 -21.8449004,97.9659 -1.8232,21.0555 -1.4697,35.9 7.0084004,50.7135 2.6705,4.6664 10.1075,12.8483 15.9806,13.8478 10.7872,1.8355 10.8519,-10.8039 10.0514,-18.9598 -0.4459,-4.5436 -1.3575,-8.7244 -1.3465,-13.2341 0.007,-3.0024 0.0128,-4.5241 -0.3719,-7.2859 -0.6103,-4.3823 2.2493,-31.227 2.8315,-34.6683 2.8866,-17.0569 6.4072,-32.7566 10.6183,-49.6043 l 9.3898,-35.6184 c 2.9605,-11.7706 6.7816,-23.0023 10.5968,-34.4115 12.2853,-36.7361 9.0292,-15.8607 22.7213,15.152 6.491103,14.7033 13.834003,28.8029 20.937603,43.0884 10.6704,21.4565 24.7317,44.276 40.4303,62.2646 8.0206,9.1905 11.118,13.9853 8.1144,27.4836 -2.5007,11.2383 -12.8035,42.3596 -0.131,52.0135 9.3532,7.1249 19.6589,4.7662 24.1396,-6.4516 22.3274,-55.9004 -2.1521,-38.2981 44.3512,-18.9324 19.5672,8.1482 40.2919,13.9116 60.8434,19.0304 50.0252,12.4583 94.9263,12.3421 145.6035,6.6413 26.7877,-3.0152 79.2539,-16.5943 100.0256,-33.0973 48.0518,-38.1767 11.2878,-76.6902 -44.337,-77.2424 -42.8406,-0.4252 -85.4549,3.0246 -126.1871,17.6542 -20.5319,7.3746 -51.9678,24.4137 -60.516,45.9822 -7.9143,22.8155 -63.153,-4.2817 -79.5087,-12.2936 -33.8958,-16.6039 -10.2339,-39.9554 3.7228,-74.9029 14.9901,-37.5376 28.8873,-64.5701 48.9322,-98.1369 6.9446,-11.6294 15.6351,-22.9445 24.8442,-32.8425 6.8349,-7.3462 17.0828,-20.4364 27.7413,-20.4364 1.256,1.8754 2.5033,2.6703 3.0101,5.2314 1.4806,7.4812 -0.2078,15.9806 -1.5837,22.8197 -1.9664,9.7753 -4.1888,18.2157 -6.9043,27.3271 -6.2417,20.9441 -10.0611,23.4559 -23.529,36.0593 -8.68,8.1227 -12.475,11.0888 -22.1944,20.912 l -7.9495,9.1667 c -10.7034,12.738 -31.9459,41.0516 -25.5637,57.6522 3.5028,9.1111 15.7328,8.2465 25.06,5.2355 10.3566,-3.3431 25.1804,-10.8286 32.8838,-18.4631 6.0353,-5.9814 10.9077,-11.3678 16.3605,-17.8713 15.3048,-19.6039 27.4507,-43.3282 34.7278,-67.9672 2.4916,-8.4365 3.5697,-17.9291 11.2856,-22.9459 2.0622,-1.3408 9.6043,-5.2648 11.9406,-5.809 -6.0502,11.4341 -9.3081,29.1753 -11.2396,44.545 -1.6611,13.2177 -0.6608,24.2717 5.1057,35.1235 4.6114,8.6786 16.5756,17.9422 26.6412,12.4716 11.4375,-6.2163 23.9281,-26.9722 32.4657,-37.8995 17.7041,-22.6612 -6.6328,21.7897 11.9262,33.0007 13.8008,8.3367 23.4613,-8.5195 30.1887,-17.5105 1.8508,-2.4732 3.5927,-4.5515 5.5236,-7.1546 5.4425,-7.338 36.267,-47.5282 40.7523,-50.5318 z"
     style="fill:#030303;fill-rule:evenodd"
     id="path2" />
  <path
     d="m 676.26277,3.0424827 c 0,7.8066003 3.8035,12.8480003 3.8035,19.6515003 0,27.4512 -1.0114,34.8355 -12.8886,58.7443 -6.7206,13.5292 -15.0338,25.019497 -24.1551,36.700997 l -13.4909,16.9379 c -0.8365,0.8538 -1.785,1.961 -2.7564,2.4372 -5.4939,2.6941 -2.6448,-6.4499 -1.3919,-12.9251 4.932,-25.484597 34.2205,-94.922397 -3.6377,-94.922397 -7.198,0 -9.6451,15.1098 -11.0307,20.6654 -5.6061,22.4754 -14.326,57.842697 -14.326,80.761597 0,13.1001 -0.1412,23.3221 9.119,27.0145 23.0225,9.18 38.9963,-14.9275 51.2632,-28.1222 8.8415,-9.5108 18.269,-23.4233 24.9318,-34.656697 13.2767,-22.3846 26.235,-58.1783 14.6432,-83.2102 -0.8064,-1.7413 -1.3833,-3.0367003 -2.5052,-4.4679003 l -2.1008,-2.3366 c -8.9926,-8.9927 -15.4774,-4.2957 -15.4774,-2.2723 z"
     style="fill:#030303;fill-rule:evenodd"
     id="path4" />
</svg>
