<?xml version="1.0" encoding="UTF-8"?>
<svg xmlns="http://www.w3.org/2000/svg" xmlns:xlink="http://www.w3.org/1999/xlink" viewBox="0 0 150 150" width="150px" height="150px">
<g id="surface136034179">
<path style=" stroke:none;fill-rule:nonzero;fill:rgb(100%,100%,100%);fill-opacity:1;" d="M 123 12 L 27 12 C 18.71875 12 12 18.71875 12 27 L 12 123 C 12 131.28125 18.71875 138 27 138 L 123 138 C 131.28125 138 138 131.28125 138 123 L 138 27 C 138 18.71875 131.28125 12 123 12 Z M 113.160156 99 L 101.96875 98.96875 C 101.96875 98.96875 101.730469 99 101.339844 99 C 100.441406 99 98.578125 98.761719 96.390625 97.261719 C 92.460938 94.53125 88.710938 87.75 85.738281 87.75 C 85.53125 87.75 85.351562 87.78125 85.171875 87.839844 C 82.589844 88.648438 81.808594 91.230469 81.808594 94.378906 C 81.808594 95.488281 81.03125 96 78.929688 96 L 73.140625 96 C 66.660156 96 60.390625 95.851562 53.339844 88.140625 C 42.960938 76.769531 33.238281 56.550781 33.238281 56.550781 C 33.238281 56.550781 32.699219 55.378906 33.269531 54.691406 C 33.808594 54.058594 35.070312 54 35.550781 54 C 35.671875 54 35.730469 54 35.730469 54 L 47.730469 54 C 47.730469 54 48.839844 54.210938 49.648438 54.808594 C 50.339844 55.320312 50.699219 56.25 50.699219 56.25 C 50.699219 56.25 52.738281 60.210938 55.289062 64.679688 C 59.578125 72.058594 61.890625 74.519531 63.539062 74.519531 C 63.808594 74.519531 64.078125 74.460938 64.351562 74.308594 C 66.808594 72.960938 66.089844 62.039062 66.089844 62.039062 C 66.089844 62.039062 66.121094 58.078125 64.828125 56.339844 C 63.839844 54.960938 61.949219 54.570312 61.109375 54.449219 C 60.449219 54.359375 61.53125 52.800781 62.96875 52.078125 C 64.828125 51.179688 67.921875 51 71.640625 51 L 73.441406 51 C 76.949219 51.058594 77.039062 51.421875 78.421875 51.75 C 82.558594 52.738281 81.148438 56.609375 81.148438 65.878906 C 81.148438 68.851562 80.609375 73.019531 82.738281 74.429688 C 82.890625 74.519531 83.101562 74.578125 83.371094 74.578125 C 84.75 74.578125 87.71875 72.808594 92.460938 64.800781 C 95.101562 60.238281 97.140625 55.710938 97.140625 55.710938 C 97.140625 55.710938 97.589844 54.898438 98.28125 54.480469 C 98.941406 54.089844 98.941406 54.089844 99.808594 54.089844 L 99.898438 54.089844 C 100.859375 54.089844 110.398438 54 112.5 54 L 112.738281 54 C 114.75 54 116.578125 54.03125 116.910156 55.261719 C 117.390625 57.121094 115.441406 60.449219 110.308594 67.351562 C 101.851562 78.660156 100.890625 77.820312 107.910156 84.359375 C 114.628906 90.601562 116.011719 93.628906 116.25 94.019531 C 119.039062 98.640625 113.160156 99 113.160156 99 Z M 113.160156 99 "/>
</g>
</svg>
